<svg width="21" height="20" viewBox="0 0 21 20" fill="none" xmlns="http://www.w3.org/2000/svg">
<path d="M20.5 10C20.5 12.6522 19.4464 15.1957 17.5711 17.0711C15.6957 18.9464 13.1522 20 10.5 20C9.18678 20 7.88642 19.7413 6.67317 19.2388C5.45991 18.7362 4.35752 17.9997 3.42893 17.0711C1.55357 15.1957 0.5 12.6522 0.5 10C0.5 7.34784 1.55357 4.8043 3.42893 2.92893C5.3043 1.05357 7.84784 0 10.5 0C11.8132 0 13.1136 0.258658 14.3268 0.761205C15.5401 1.26375 16.6425 2.00035 17.5711 2.92893C18.4997 3.85752 19.2362 4.95991 19.7388 6.17317C20.2413 7.38642 20.5 8.68678 20.5 10ZM4.5 11H12.5L9 14.5L10.42 15.92L16.34 10L10.42 4.08L9 5.5L12.5 9H4.5V11Z" fill="#843C74"/>
</svg>
